<svg xmlns="http://www.w3.org/2000/svg" version="1.1" xmlns:xlink="http://www.w3.org/1999/xlink" xmlns:svgjs="http://svgjs.com/svgjs" viewBox="0 0 140 140" width="140" height="140"><g transform="matrix(0.7,0,0,0.7,0,0)"><path d="M143.308,172.863c-4.543,0-86.631.473-95.587.674-.644.014-.757,1.2-.068,1.2,8.435-.095,19.777.125,28.6.129,5.739,0,9.315.084,9.737,6.974.359,5.868-2.06,8.211-7.89,8.215-9.9.007-21.08.159-30.56.159-.757,0-.757,1.256,0,1.28,24.893.789,82.9-.844,95.42-.7,5.3.062,8.278-2.582,8.254-8.246C151.185,176.089,148.04,172.863,143.308,172.863Zm-40.994,12.978c-.141.934-1.144.863-1.045-.242a28.887,28.887,0,0,0-.439-5.914c-.292-1.685,0-1.454,1.582-1.454,9.987,0,23.382-.227,33.43-.219.825,0,.81.855,0,.886-11.555.435-22.981.757-33.755.613A18.11,18.11,0,0,1,102.314,185.841Zm37.253-1.09c-.322,1.621-1.143,1.878-2.627,1.893-10.6.107-21.68.481-32.188.28-.689-.013-.757-1.1-.076-1.09,10.646.089,22.458-.493,33.437-.712.432-1,.837-2.833-.272-6.474-.2-.644.448-1.019.757-.424A9.951,9.951,0,0,1,139.567,184.751Z" fill="#3b3b3c"></path><path d="M51.113,188.961c3.029-2.469,3.631-8.758.5-11.843-.424-.417-1.058.2-.757.659a8.865,8.865,0,0,1-.462,10.54C50.1,188.671,50.734,189.233,51.113,188.961Z" fill="#3b3b3c"></path><path d="M76.062,178.845c-5.618.2-10.184.624-15.9.181a.538.538,0,0,0-.121,1.068c4.324.356,12,.483,16.189-.242a.51.51,0,0,0-.167-1.007Z" fill="#3b3b3c"></path><path d="M63.947,185.629c-.651,0-.613.987,0,1.015,3.785.169,7.572.223,11.358.2.538,0,.682-.954.1-.984C71.6,185.666,67.771,185.622,63.947,185.629Z" fill="#3b3b3c"></path><path d="M81.211,182.146c-3.68.027-7.366.28-11.047.341-.651.011-.72,1.012-.061,1.022a97.741,97.741,0,0,0,11.184-.356C81.878,183.094,81.771,182.142,81.211,182.146Z" fill="#3b3b3c"></path><path d="M64.046,139.373c-2.786,2.166-3.584,7.778-.757,10.737,2.36,2.47,6.746,2.2,10.025,2.18,18.982-.13,41.524-.446,61.672-.757.682-.01.758-1.239.053-1.227-21.995.385-44.022.379-64.232.432-2.173.006-4.866-.04-6.352-1.9-2.1-2.631-1.328-7.511,1.877-8.8,1.99-.8,4.286-.638,6.383-.666q30.251-.412,60.325-.538c.985,0,1.106-1.518.121-1.514-20.754.083-41.507.283-62.255.378C68.551,137.71,65.992,137.859,64.046,139.373Z" fill="#3b3b3c"></path><path d="M102.617,46.943a17.064,17.064,0,0,0,1.438,6.815c.264.47.933.24.758-.3a21.661,21.661,0,0,1-1.1-8.079,16.633,16.633,0,0,0,1.31-3.4c2.468-.144,4.974-5.793,1.7-6.959a2.539,2.539,0,0,0-2.378.515c-3.269-3.832-1.607-7.683-3.369-7.163-2.505.739-6.731,2.6-13.456-.5-.658-.3-.757.477-.318.758a16.852,16.852,0,0,0,13.509,1.234,9.9,9.9,0,0,0,2.271,5.883c1.831,2.216,1.752-.158,3.347.348,1.991.811-.115,4.533-1.514,4.74a.9.9,0,0,0-.712.583c-1.992,6.815-6.541,7.931-9.677,5.3-4.459-3.739-5.319-10.243-5.4-15.629-.008-.583-.678-.524-.757,0a15.315,15.315,0,0,0,.1,4.8c-1.968.106-3.493,3.521,0,5.921,1.176.808,1.219-.279.864-.484-2.033-1.176-2.726-4.051-.652-4.43.69,3.566,2.31,8.466,5.036,10.813A6.256,6.256,0,0,0,102.617,46.943Z" fill="#3b3b3c"></path><path d="M94.341,37.426a9.612,9.612,0,0,0-.4,3.089c.074,2,3.511.4,2.544-.258-.414-.283-1.12.311-1.468.175s0-2.7.083-2.946C95.242,36.88,94.536,36.766,94.341,37.426Z" fill="#3b3b3c"></path><path d="M97.8,35.752c-.409-.954-1.581.159-.863,1.515C97.317,37.982,98.474,37.32,97.8,35.752Z" fill="#3b3b3c"></path><path d="M91.766,37.728c.336.756,1.318.318,1.038-1.143S91,36.007,91.766,37.728Z" fill="#3b3b3c"></path><path d="M98.187,43.642a2.609,2.609,0,0,0,1.855-2.446c.013-1.022-.757-1.12-1-.1a2.105,2.105,0,0,1-1.734,1.8C95.787,43.339,97.006,44.157,98.187,43.642Z" fill="#3b3b3c"></path><path d="M96.832,32.224c-.359.152-.545.984.378.939,1.515-.076,2.112,1.119,2.5.938C100.5,33.735,98.709,31.429,96.832,32.224Z" fill="#3b3b3c"></path><path d="M92.857,32.511c-1.727-.545-3.286,1.619-2.537,2.121.417.279.481-.852,2.408-1.144A.516.516,0,0,0,92.857,32.511Z" fill="#3b3b3c"></path><path d="M93.1,49.086a29.622,29.622,0,0,1-.757,3.6c-.478,1.754.668,1.566.939.06.215-1.2.4-2.4.643-3.6C94.038,48.583,93.176,48.541,93.1,49.086Z" fill="#3b3b3c"></path><path d="M87.11,34.283C82.939,28.618,84.125,20.9,92.258,18.8c5.9-1.52,14.507-1.514,17.62,4.861,1.794,3.673.684,7.859-1.469,11.115a.613.613,0,0,0,1.015.689c7.3-10.084-.431-21.982-16.916-18.248-3.635.824-6.924,2.649-8.435,6.217a11.022,11.022,0,0,0,2.189,11.562A.554.554,0,0,0,87.11,34.283Z" fill="#3b3b3c"></path><path d="M105.274,15.656c.053-2.314.559-6.426,1.992-8.419a2.054,2.054,0,0,1,2.317-.7A13.757,13.757,0,0,1,114.429,9.3a3.887,3.887,0,0,1,.833,4.854c-1.1,1.891-3.284,2.662-5.2,3.46a.712.712,0,0,0,.477,1.34c2.115-.773,4.34-1.78,5.694-3.68a5.173,5.173,0,0,0,0-6.057,12.259,12.259,0,0,0-5.678-3.854,4.178,4.178,0,0,0-3.226-.068A4.443,4.443,0,0,0,105.3,7.6a13.515,13.515,0,0,0-1.075,8.17A.561.561,0,0,0,105.274,15.656Z" fill="#3b3b3c"></path><path d="M39.331,73.165a3.882,3.882,0,0,1-3.786.461c-.631-.265-1.377.99.8,1.371,1.424.249,3.326-.562,3.566-1.431C40.04,73.111,39.748,72.953,39.331,73.165Z" fill="#3b3b3c"></path><path d="M39.77,69.545c-.946.024-4.3.821-5.194-1.6a.538.538,0,0,0-1.045.159c.227,2.831,4.123,3.21,6.459,2.127C40.46,70.016,40.218,69.534,39.77,69.545Z" fill="#3b3b3c"></path><path d="M39.869,67.054c-.721-.067-4.261.451-4.664-2.105a.516.516,0,0,0-1.015-.038c-.547,3.016,3.574,3.461,5.785,2.931C40.467,67.69,40.4,67.1,39.869,67.054Z" fill="#3b3b3c"></path><path d="M39.793,71.718c.206-.392-.068-.69-.462-.568a4.665,4.665,0,0,1-4.6.144c-.485-.241-1.045.439-.583.811C36.1,73.671,39.215,72.819,39.793,71.718Z" fill="#3b3b3c"></path><path d="M154.3,71.673c3.131,1.376,6.482-1.083,6.618-2.741a.545.545,0,0,0-.9-.424c-.468.383-1.762,2.978-5.482,2.271C153.849,70.649,153.653,71.388,154.3,71.673Z" fill="#3b3b3c"></path><path d="M155.567,69.061c2.37.407,5.544-1.85,5.247-3.885a.523.523,0,0,0-.939-.227c-1.378,2.181-1.87,2.906-4.672,3.18C154.65,68.183,154.461,68.871,155.567,69.061Z" fill="#3b3b3c"></path><path d="M158.845,74.732c-.924.189-1.627,1.459-4.5.424-.567-.205-.832.378-.318.757,1.729,1.276,4.8.757,5.384-.492A.523.523,0,0,0,158.845,74.732Z" fill="#3b3b3c"></path><path d="M159.5,71.824c-1.007.446-1.619,1.872-5.421,1.174-.5-.092-.6.523-.22.757,2.105,1.289,5.662.232,6.368-1.325C160.414,72.011,159.875,71.657,159.5,71.824Z" fill="#3b3b3c"></path><path d="M61.759,131.975c4.469,3.571,10.733,2.607,15.727.553.659-.271.271-.965-.4-.757-4.231,1.305-8.81,2.409-12.978.257-2.648-1.367-5.295-4.79-4.081-7.1,1.072-2.042,2.277-.5,4.907.507a24.515,24.515,0,0,0,10.471,1.62c.682-.048.591-.87-.1-.878-3.786-.044-9.023-1.075-12.425-3.029C59.09,120.97,55.984,127.361,61.759,131.975Z" fill="#3b3b3c"></path><path d="M134.471,121.889c-2.551,1.969-7.246,4.192-10.335,4.377-.6.036-.462.887.129.863,4.543-.186,8.413-2.6,10.774-4.4,3.833-2.928,4.552.042,2.931,3.475a12.978,12.978,0,0,1-3.847,5.013c-3.724,2.448-7.253,1.9-10.684,1.575-.5-.047-.615.628-.068.757a19.422,19.422,0,0,0,8.632,0c3.627-1.052,5.554-3.579,7.057-6.875C141.437,121.461,139.015,118.384,134.471,121.889Z" fill="#3b3b3c"></path><path d="M77.5,124.774c-.144,3.589.954,7.322,3.029,9.185,7.359.045,38.025-2.962,52.154-18.93,8.773-9.915,6.444-14.348,1.916-15.492s-13.516-.287-22.8,6.5S90.941,121.14,77.5,124.774Z" fill="#3b3b3c"></path><path d="M77.486,123.843A84.187,84.187,0,0,0,96.711,114.1,68.9,68.9,0,0,1,85.2,106.11c-8.716-7.519-13.71-9.065-18.361-8.61-6.426.629-11.537,6.332-1.886,18.014C67.649,118.775,72.609,121.821,77.486,123.843Z" fill="#3b3b3c"></path><path d="M122.16,124.668A89.529,89.529,0,0,1,102.9,132.1a107.418,107.418,0,0,0,17.968,2.211C121.91,132.672,122.9,127.727,122.16,124.668Z" fill="#3b3b3c"></path><path d="M187.315,192.5c-58.091.1-116.6.174-174.659.758-.863.008-.977,1.345-.091,1.355,58.024.626,116.56.491,174.637-.454C188.239,194.146,188.375,192.5,187.315,192.5Z" fill="#7eacdb"></path><path d="M130.413,160.809a.531.531,0,0,0-.061-1.015c-.825-.257-8.473,0-9.457,0-.689,0-.621,1.05.061,1.06C121.993,160.869,129.526,161.108,130.413,160.809Z" fill="#7eacdb"></path><path d="M138.144,157.31c-1.93,2.126-2.048,6.617.265,9.087a.515.515,0,0,0,.8-.636c-1.885-2.567-1.569-5.21-.113-7.762A.591.591,0,0,0,138.144,157.31Z" fill="#7eacdb"></path><path d="M59.086,154.744c-3.029,0-5.876,2.271-5.876,7.632,0,5.028,1.75,7.76,6.361,7.905,4.081.128,75.824-.159,84.236-.432a.712.712,0,0,0,0-1.4c-1.682-.262-18.929.189-21.958.212-5.081.038-5.386-2.749-5.134-7.572.278-5.3,4.93-4.714,8.178-4.725,5.686-.02,11.907.191,17.514-.114a.758.758,0,0,0-.068-1.514c-7.572-.091-15.212.006-22.814.114C105.986,155.042,61.774,154.74,59.086,154.744Zm45.431,3.127a.644.644,0,0,1,1.174.515c-1.137,3.334-1,5.119.416,8.329.262.592-.566.922-.931.492-1.962-2.316-2.181-6.853-.682-9.336Zm-4.134.038c.8-1.038,1.514-.137,1.234.287a8.473,8.473,0,0,0-.333,7.958c.3.6-.451,1.225-.848.652-1.69-2.441-1.923-6.505-.076-8.89Zm-32.423-.2c.758-1.143,1.619-.811,1.106.348-1.52,3.436-1.634,5.6-.235,9.193.253.65-.438.975-.9.356-1.894-2.534-1.916-7.133.008-9.9Zm-5.224.318c.719-1.423,1.734-1.075,1.173.606a9.767,9.767,0,0,0,.288,8.125c.3.61-.543,1.177-.916.575a9.994,9.994,0,0,1-.6-9.306Z" fill="#7eacdb"></path><path d="M123.447,164.3a52.465,52.465,0,0,0,9.177,0c.6-.142.674-1.136,0-1.136-2.938,0-6.058,0-9.048.084a.53.53,0,1,0-.129,1.052Z" fill="#7eacdb"></path><path d="M129.383,139.744a6.148,6.148,0,0,0,2,9.328c.532.277,1.067-.423.606-.711a5.7,5.7,0,0,1-1.711-8,.545.545,0,1,0-.894-.613Z" fill="#7eacdb"></path><path d="M92.084,147.512c9.389.243,20.158-.034,30.416-.234a.572.572,0,0,0,0-1.144c-10.4.21-21,.281-30.408.341A.523.523,0,0,0,92.084,147.512Z" fill="#7eacdb"></path><path d="M104.252,142.015c-9.723-.064-23.533.19-31.128.182-.681,0-.628,1.045.053,1.053,8.746.1,21.39.23,31.128-.167A.535.535,0,0,0,104.252,142.015Z" fill="#7eacdb"></path><path d="M124.015,31.012c2.477-4.948,5.181-9.785,7.617-14.742.249-.508-.615-1.008-.878-.492-2.54,4.974-4.971,9.989-7.428,14.977C123.034,31.347,123.73,31.581,124.015,31.012Z" fill="#7eacdb"></path><path d="M132.851,37.728c6.823-2.3,14.939-5.751,21.655-8.594.613-.259.2-1.122-.408-.923-4.025,1.321-18.041,6.986-21.663,8.737C131.843,37.235,132.216,37.943,132.851,37.728Z" fill="#7eacdb"></path><path d="M151.129,97.341c5.133.492,10.927.977,16.053,1.22a.516.516,0,0,0,.128-1.008,134.53,134.53,0,0,0-16.165-.976C150.456,96.582,150.516,97.283,151.129,97.341Z" fill="#7eacdb"></path><path d="M147.684,102.536c2.211,2.022,11.6,9.367,14.243,11.153.529.358,1.162-.336.666-.757-2.482-2.111-11.815-9.422-14.386-11.093A.436.436,0,0,0,147.684,102.536Z" fill="#7eacdb"></path><path d="M74.041,32.663c.319.476,1.082.121.8-.4-2.693-5.033-5.236-10.243-7.935-15.182-.294-.538-1.107-.045-.916.492C67.288,21.232,71.833,29.377,74.041,32.663Z" fill="#7eacdb"></path><path d="M47.88,101.264c-1.638.95-11.912,9.531-13.046,10.6a.523.523,0,0,0,.643.818c1.265-.855,11.676-9.412,12.956-10.775A.432.432,0,0,0,47.88,101.264Z" fill="#7eacdb"></path><path d="M26.9,95.645c1.666-.116,13.438-1.77,15.364-2.362.6-.184.371-.893-.2-.878-1.968.048-13.737,1.894-15.363,2.271C26.135,94.806,26.338,95.685,26.9,95.645Z" fill="#7eacdb"></path><path d="M48.046,32.6c3.506,2.324,14.969,7.053,18.657,8.329a.464.464,0,0,0,.318-.871c-6.191-2.445-12.5-6.058-18.49-8.42a.539.539,0,0,0-.485.962Z" fill="#7eacdb"></path><path d="M40.27,48.806l2.37-2.12c6.542,3.43,15.257,5.42,22.579,6.186,9.473.991,29.471-2.792,31.522,10.919.083.552.819,1.113,1.143.469,5.479-10.878,19.946-8.319,29.985-10.154,8.239-1.506,16.113-5.012,23.707-8.442a38.438,38.438,0,0,0,4.127,2.877c.31.106.795-.325.386-.644-1.349-1.051-2.691-2.113-4.043-3.157a.756.756,0,0,0-.758-.106c-7.25,3.113-15.294,6.817-23.525,8.329-9.412,1.729-24.374-.56-30.144,9.351C95.075,49.881,77.485,52.537,68.74,52.039a68.571,68.571,0,0,1-19.293-3.975c-8.257-2.969-6.006-3.5-9.086-.757C37.889,49.508,38.15,50.707,40.27,48.806Z" fill="#7eacdb"></path><path d="M36.181,64.275c2.272,2.476,5.106-.189,5.5,4.218.381,4.293-.061,7.034-4.021,7.572.2,1.7.385,3.323.545,4.777.134,1.219-.076,2.272,2.4,3.226S82.7,99.681,88.026,102.43c-1.583-11.638-3.263-23.843-4.293-35.5-.061-.689.743-.657.832,0,1.651,12.151,3.544,25.123,4.892,37.344,2.7,3.256,9.336,6.421,14.583.757,1.515-12.031,2.8-23.9,4.127-35.943.077-.7.864-.591.825.053-.672,11.252-1.953,23.473-3.506,34.694,8.375-3.733,44.326-15.1,46.605-15.749s3.1-1.817,3.248-3.3c.038-.393.5-2.862,1.182-6.307-5.808-.522-5.05-4.021-4.263-8.208.916-4.876,5.875-2.983,7.291-6.905,1.341-6.52,2.549-12.166,2.817-12.872.687-1.813-.1-2.9-2.385-2.015-22.544,8.74-37.4,13.626-50.943,16.848-2.386.567-.864,1.809-5.884,3.627s-12.336.713-15.007-1.439c-2.273-1.831-1.817-2.908-4.414-3.445C77.91,62.866,40.109,51.392,37.8,50.5c-3.312-1.289-3.938-.894-3.453,1.574S35.515,59.126,36.181,64.275ZM141.665,78.942c-2.955,1.526-14.925,5.564-18.392,6.534-.568.159-.958-.747-.4-.976,2.556-1.054,15.384-5.865,18.392-6.52C141.831,77.857,142.188,78.671,141.665,78.942Zm-22.474.333c7.277-2.522,17.992-6.554,25.184-8.708.606-.181.8.751.3,1.008-4.5,2.32-20.684,7.641-25.169,8.73C118.912,80.45,118.624,79.472,119.191,79.275Zm-16.2,19.687c-3.453,3.384-9.412,2.582-12.3.757a.533.533,0,1,1,.493-.946c5.883,2.15,8.079.832,11.206-.758a.592.592,0,0,1,.606.917ZM88.934,76.511c5.759,2.87,10.146,2.588,14.879-.166.651-.379,1.077.312.606.81-3.432,3.625-11.937,4.07-15.9.106C88.158,76.9,88.525,76.307,88.934,76.511Z" fill="#7eacdb"></path></g></svg>