<svg xmlns="http://www.w3.org/2000/svg" version="1.1" xmlns:xlink="http://www.w3.org/1999/xlink" xmlns:svgjs="http://svgjs.com/svgjs" viewBox="0 0 140 140" width="140" height="140"><g transform="matrix(0.7,0,0,0.7,0,0)"><path d="M19.738,157.555a57.558,57.558,0,0,0,11.02.723c.1,0,41.952-1.45,43.468-1.572,3.377-.273,8.352-.764,12.52-.831a.879.879,0,1,0,.044-1.757c-6.891-.393-12,.14-18.608.155-2.971.059-34.919,1.02-37.55,1.2a95.24,95.24,0,0,1-10.695.365.867.867,0,0,0-.961.762A.876.876,0,0,0,19.738,157.555Z" fill="#7eacdb" fill-rule="evenodd"></path><path d="M12.416,165.368a135.816,135.816,0,0,0,14.8.811c12.5-.025,66.185-3.216,67.819-3.321a.879.879,0,1,0-.064-1.757c-4.577.044-80.62,2.549-82.45,2.539a.866.866,0,0,0-.918.815A.878.878,0,0,0,12.416,165.368Z" fill="#7eacdb" fill-rule="evenodd"></path><path d="M7.9,171.963c4.228.828,6.824.605,10.8.825,7.455.225,11.177.269,22.87.058,30.416-.627,36.037-.36,56.954-2a.885.885,0,0,0-.092-1.767c-3.792.112-84.66,1.354-87.145,1.345a26.355,26.355,0,0,1-3.1-.17.867.867,0,1,0-.291,1.709Z" fill="#7eacdb" fill-rule="evenodd"></path><path d="M37.144,126.678a25.673,25.673,0,0,1-7.952,1.3,43.672,43.672,0,0,1-21.157-4.4c-.16-6.311,1.962-11.733,5.18-17.025a41.576,41.576,0,0,1,25.366-19.3,25.616,25.616,0,0,0,5.854,5.291,15.467,15.467,0,0,0,18.627-2.32,12.659,12.659,0,0,0,3.661-5.151c2.655.146,5.466,1.393,7.874,2.413,6.17,2.612,11.612,6.272,15.549,11.768-2.131.878-4.4,1.436-6.471,2.441-6.6,3.219-13.248,4.923-16.549,11.7a1.78,1.78,0,0,0-1.1-.738c.378-4.141.509-8.393.529-12.559.01-1.893-4.573-6.34-16.889-5.471a13.639,13.639,0,0,0-10.617,5.952c-2.515,3.753-1.569,9.331-.913,13.506a11.2,11.2,0,0,0-4.607,3.66c-2.51,3.947-.67,7.66,3.383,9.1Z" fill="#7eacdb" fill-rule="evenodd"></path><path d="M48.105,126.9a4.709,4.709,0,0,0,.5.534c2.28,1.883,4.6,1.2,6.447-1.044.475-.587.924-1.033.544-1.432-.365-.382-.747-.041-1.442.452-.345.233-.685.437-1.01.645-1.26.813-2.191,1.073-3.476.064-1.519-.958-1.594-1.2-1.966-.918C47.234,125.543,47.856,126.547,48.105,126.9Z" fill="#191919" fill-rule="evenodd"></path><path d="M49.965,116.267a13.935,13.935,0,0,0,.214,6.612.526.526,0,0,0,1.044-.121c-.059-2.98-.23-6.1-.238-6.36A.514.514,0,0,0,49.965,116.267Z" fill="#191919" fill-rule="evenodd"></path><path d="M58.6,115.921c.463.524-.024,1.7-1.077,2.627s-2.282,1.252-2.743.723.024-1.694,1.077-2.621S58.136,115.4,58.6,115.921Z" fill="#191919" fill-rule="evenodd"></path><path d="M43.615,116.206c-.46.52.024,1.7,1.078,2.621s2.281,1.253,2.742.729-.024-1.7-1.077-2.627S44.077,115.683,43.615,116.206Z" fill="#191919" fill-rule="evenodd"></path><path d="M37.277,146.571c-4.315,1.376-8.292,4.018-11.952,6.694C16.9,159.4,8.394,167.741,6.018,177.883a.514.514,0,0,1-1-.219c2.109-10.9,10.332-19.214,19.287-25.8,4.038-2.964,8.377-5.814,13.195-7.2a.876.876,0,0,1,1.044.5,9.482,9.482,0,0,0,3.481,3.9c6.922,4.958,16.091,2.082,20.608-4.947a.869.869,0,0,1,.839-.388c14.264,1.981,27.512,10.763,35.269,22.38a.526.526,0,1,1-.869.592,52.355,52.355,0,0,0-34.1-21.2c-5.106,7.5-15.158,10.435-22.773,4.99A11.754,11.754,0,0,1,37.277,146.571Z" fill="#191919" fill-rule="evenodd"></path><path d="M43.788,111.716A23.1,23.1,0,0,0,47.7,113.41a.525.525,0,1,0,.51-.917,8.529,8.529,0,0,0-4.083-1.748C43.441,110.684,43.176,111.3,43.788,111.716Z" fill="#191919" fill-rule="evenodd"></path><path d="M54.476,112.929c.989-.366,2.561-1.166,3.219-1.466.633-.288.447-1.068-.272-1.009a4.8,4.8,0,0,0-3.559,1.65C53.423,112.694,53.807,113.177,54.476,112.929Z" fill="#191919" fill-rule="evenodd"></path><path d="M69.918,117.4a7.047,7.047,0,0,0-5.394-2.85c.293-4.053.411-7.682.326-12.622a.517.517,0,0,0-.777-.449,14.48,14.48,0,0,0-6.082-4.188A21.827,21.827,0,0,0,47.6,96.68c-4.239.81-5.98,2.869-8.753,5.592a1.29,1.29,0,0,0,.063,1.62,44.525,44.525,0,0,0,.5,10.943c-7.235,1.316-7.314,9.463-.33,10.239.782,4.882,2.775,9.851,7.049,12.292.183,1.826.274,3.931.369,5.68a17.014,17.014,0,0,0-3.107,1.305.524.524,0,1,0,.427.957,13.1,13.1,0,0,1,3.432-1.151.634.634,0,0,0,.534-.645c-.019-1.335-.062-5.061-.086-5.589a6.956,6.956,0,0,0,3.994.13.522.522,0,1,0-.179-1.029c-6.655.408-9.914-6.213-10.807-12.877a.874.874,0,0,0-.81-.753,6.94,6.94,0,0,1-2.355-.519c-3.408-1.538-2.03-6.143,2.976-6.438a.86.86,0,0,0,.767-1.143,9.525,9.525,0,0,0,1.535-3.646,25.306,25.306,0,0,0,1.047-5.2,25.731,25.731,0,0,0,14.893-.571,11.149,11.149,0,0,0,.933,3.821,27.527,27.527,0,0,0,2.2,4.971c.4.708.634,1.206,1,1.22a.855.855,0,0,0,.766.371,6.013,6.013,0,0,1,4.248,1.407c1.159,1.079.986,2.3,0,3.554-1.037,1.32-3.137,1.8-4.8,2.039a.87.87,0,0,0-.743.767,16.743,16.743,0,0,1-7.161,11.5.755.755,0,0,0-.335.621l.107,6.991a.622.622,0,0,0,.437.621c1.3.371,2.469.525,3.859.782a.526.526,0,0,0,.214-1.029c-1.011-.237-2.282-.5-3.238-.8.029-.548.117-4.641.16-6.136a17.858,17.858,0,0,0,7.6-11.69A12.692,12.692,0,0,0,67.068,124C69.724,122.763,71.387,119.837,69.918,117.4Zm-29.174-4.909c-.217-1.594-.526-4.672-.674-7.531a11.684,11.684,0,0,0,2.535,1.13C41.836,108.2,41.851,108.742,40.744,112.491Zm22.154.934c-.162-.542-.319-.993-.519-1.539-2.251-6.249-2-5.488-2.486-6.416a10.305,10.305,0,0,0,3.84-2.351C63.55,105.475,63.133,110.579,62.9,113.425Z" fill="#191919" fill-rule="evenodd"></path><path d="M96.331,69.437a22.068,22.068,0,0,0-.049,8.341.527.527,0,0,0,1.049-.1c-.03-2.046.044-6.065.024-8.122A.516.516,0,0,0,96.331,69.437Z" fill="#191919" fill-rule="evenodd"></path><path d="M97.637,82.678c.393-.242.777-.495,1.18-.713,1.633-.9,2.233-1.126,2.51-.694.248.388.056.7-1.6,2.043a16.22,16.22,0,0,1-1.655,1.127.886.886,0,0,1-.9-.01A24.666,24.666,0,0,1,94.545,82.9c-.475-.4-1.3-1.519-.816-1.937.3-.249.424-.143,1.762.573C97.821,82.768,97.537,82.621,97.637,82.678Z" fill="#191919" fill-rule="evenodd"></path><path d="M90.331,64.948c.181.058.757-.138,3.078,1.32.611.384,1.139-.225.7-.781a3.852,3.852,0,0,0-3.733-1.573C89.676,64.074,89.652,64.731,90.331,64.948Z" fill="#191919" fill-rule="evenodd"></path><path d="M100.74,66c1.391-.982,1.522-1.2,3.243-1.276a.524.524,0,1,0,.131-1.039,3.537,3.537,0,0,0-4.175,1.665C99.647,65.987,100.138,66.425,100.74,66Z" fill="#191919" fill-rule="evenodd"></path><path d="M103.3,70.585a1.7,1.7,0,1,1-1.553,1.694A1.626,1.626,0,0,1,103.3,70.585Z" fill="#191919" fill-rule="evenodd"></path><path d="M148.759 50.817 A1.553 1.694 0 1 0 151.865 50.817 A1.553 1.694 0 1 0 148.759 50.817 Z" fill="#191919"></path><path d="M56.569,54.769a1.7,1.7,0,1,1-1.553,1.7A1.629,1.629,0,0,1,56.569,54.769Z" fill="#191919" fill-rule="evenodd"></path><path d="M90.736 72.558 A1.553 1.694 0 1 0 93.842 72.558 A1.553 1.694 0 1 0 90.736 72.558 Z" fill="#191919"></path><path d="M139.3,49.407a1.7,1.7,0,1,1-1.554,1.7A1.627,1.627,0,0,1,139.3,49.407Z" fill="#191919" fill-rule="evenodd"></path><path d="M44.003 56.748 A1.553 1.694 0 1 0 47.109 56.748 A1.553 1.694 0 1 0 44.003 56.748 Z" fill="#191919"></path><path d="M50.439,55.229a29.222,29.222,0,0,0,.175,6.588.522.522,0,1,0,1.044-.029,27.542,27.542,0,0,0-.189-6.6C51.32,54.513,50.544,54.528,50.439,55.229Z" fill="#191919" fill-rule="evenodd"></path><path d="M95.31,90.569C91.056,88.6,88.962,84.426,88.4,79.753a.865.865,0,0,0-.9-.772,16.957,16.957,0,0,1-3.3,0c-1.607-.27-2.477-1.154-1.961-2.714a3.654,3.654,0,0,1,3.005-2.6c1.794-.311,2.148.11,2.558-.277.25-.236.192-.429.2-1.152a60.007,60.007,0,0,1,1.165-11.224.523.523,0,1,0-1-.291,32.7,32.7,0,0,0-1.772,9,11.474,11.474,0,0,1-1.355-9.6.516.516,0,0,0-.961-.374c-2.253,4.508-1.019,8.805,2.1,12.657a8.281,8.281,0,0,0-1.494.025c-3.711.472-5.568,4.894-3.292,7.083,1.423,1.363,3.46,1.338,5.389,1.247.751,4.768,3.021,8.936,7.437,11.059l.35,5.816c-.8.126-.793.169-1.471.316A.525.525,0,0,0,93.271,99c.4-.067.8-.131,1.195-.18.707-.087.887.061,1.155-.218.239-.261.349.146.168-7.326A.8.8,0,0,0,95.31,90.569Z" fill="#191919" fill-rule="evenodd"></path><path d="M77.247,51.422a11.1,11.1,0,0,0,2.291,3.117c7.245,6.339,15.849-1.209,24.239,3.9a8.141,8.141,0,0,1,3.85,5.01.524.524,0,1,0,1.024-.224c-.924-5.163-5.675-7.939-10.986-8.384-7-.535-14.03,3.565-19.549-3.975A.515.515,0,0,0,77.247,51.422Z" fill="#191919" fill-rule="evenodd"></path><path d="M82,45.117a6.978,6.978,0,0,0,1.014,2.2A9.681,9.681,0,0,0,89.227,50.9c2.21.324,3.629-.066,5.389-.024a.532.532,0,0,0,.583-.461.517.517,0,0,0-.457-.578c-3.714-.862-6.822.342-10.437-3.578a16.164,16.164,0,0,1-1.369-1.582.515.515,0,1,0-.932.437Z" fill="#191919" fill-rule="evenodd"></path><path d="M111.065,57.59c1.4-5.171-2.428-10.584-7.456-12-3.02-.828-6.688-.314-9.442-1.209a9.747,9.747,0,0,1-4.617-3.1.513.513,0,1,0-.835.6,10.251,10.251,0,0,0,4.922,4c3.194,1.215,6.4.507,9.5,1.4,4.36,1.22,7.7,6.153,6.059,10.5a.866.866,0,0,0,.5,1.117,11.8,11.8,0,0,1,1.7.757c4.382,2.413,3.382,7.893,1.231,12.432a6.6,6.6,0,0,0-2.869-.93.516.516,0,0,0-.233,1,6.909,6.909,0,0,1,2,.839c1.661,1.123,2.364,3.245.534,4.515a6.713,6.713,0,0,1-3.815.777.868.868,0,0,0-.87.665,24.473,24.473,0,0,1-6.16,11.763.817.817,0,0,0-.233.573c.058,2.741.32,4.268.442,6.7a.626.626,0,0,0,.607.607,15.8,15.8,0,0,1,2.208.048.525.525,0,0,0,.156-1.039,15.453,15.453,0,0,0-1.733-.2c.03-1.641-.093-3.855-.054-5.767a24.737,24.737,0,0,0,6.3-11.6c5.9-.119,7.328-4.517,4.6-7.239C116.856,66.7,117.459,60.32,111.065,57.59Z" fill="#191919" fill-rule="evenodd"></path><path d="M98.26,107.871a106.636,106.636,0,0,1-8.306-7.786,69.394,69.394,0,0,0-6.981,2.408c1.758,4.723,3.165,8.194,4.8,11.864.568,1.287,1.481,3.127,3.112,3.175,1.539.044,2.7-1.311,3.432-2.5a70.975,70.975,0,0,0,3.928-7.321Z" fill="#7eacdb" fill-rule="evenodd"></path><path d="M99.277,106.871a106.661,106.661,0,0,0,8.306-7.787,53.144,53.144,0,0,1,5.9,2.272,64.161,64.161,0,0,1-3.719,12c-.568,1.286-1.481,3.126-3.112,3.175-1.539.043-2.7-1.311-3.432-2.5a70.967,70.967,0,0,1-3.927-7.321Z" fill="#7eacdb" fill-rule="evenodd"></path><path d="M52.03,45.022a23.346,23.346,0,0,1-1.33,6.432.524.524,0,0,0,.941.462,9.5,9.5,0,0,0,1.413-6.976A.514.514,0,1,0,52.03,45.022Z" fill="#191919" fill-rule="evenodd"></path><path d="M56.626,44.827c-.083,1.152-.377,4.462-1.087,5.743a.527.527,0,0,0,.869.6,7.527,7.527,0,0,0,1.243-6.447C57.445,44.042,56.676,44.129,56.626,44.827Z" fill="#191919" fill-rule="evenodd"></path><path d="M66.034,57.04c2.541-4.851,2.479-12.316.606-17.289-5.448-14.412-23.855-11.136-26.253.151a11.559,11.559,0,0,0-3.474,2.622,9.129,9.129,0,0,0-2.717.01,7.928,7.928,0,0,0-4.553,3.223c-2.529,3.388-2.969,7.633-3.442,11.807-.525,4.9.166,10.187-.733,15.122-.613,3.589-3.028,8.847-6.214,7.078a.869.869,0,0,0-1.087,1.32c4.968,5.827,15.244,4.78,20.224-.665a16.519,16.519,0,0,0,3.929-10.91,9.476,9.476,0,0,0,4.617,4.828c.1,1.384.553,6.913.674,8.3a26.049,26.049,0,0,1-3.888,1.2.523.523,0,1,0,.189,1.029,26.115,26.115,0,0,0,4.67-1.127.694.694,0,0,0,.457-.694c-.054-1.563-.291-6.994-.354-8.147a10.174,10.174,0,0,0,3.187.334c.549-.039,2.312-.35,2.175-1.073-.078-.418-.158-.407-2.185-.563-2.877-.245-4.916-.583-6.668-2.77a22.934,22.934,0,0,1-2.7-5.2.875.875,0,0,0-.952-.51c-4.446.761-5.824-1.9-4.51-4.073a4.58,4.58,0,0,1,3.18-2.2c.319-.016.48-.29.542-.6.136-.678,2.924-10.2,4.005-15.17,2.189,2.12,3.249,6.257,1.418,8.874a.523.523,0,0,0,.83.636c2.8-3.346,1.6-9.307-2.364-11.792a.87.87,0,0,0-1.306.573c-1.209,6.214-3.03,10.16-3.581,16.469a5.394,5.394,0,0,0-2.109.669c-2.385-5.647-2.943-12.491,1.875-16.033,1.714-1.215,2.386-1.134,2.5-1.849,1.347-7.626,11.29-11.087,17.676-7.01,5.146,3.261,7.01,9.534,6.884,15.573a17.94,17.94,0,0,1-1.508,7.4,6.685,6.685,0,0,0-2.843-.421,17.74,17.74,0,0,0-1.27-6.446.516.516,0,0,0-.99.291c.27,2.083.873,5.2,1.223,7.165a.521.521,0,0,0,1.019.094c2.528.112,5.253,2.144,3.962,4.79a4.355,4.355,0,0,1-1.69,1.908c-1.836,1.13-3.039.539-3.291,1.578-.623,2.7-1.742,5.514-3.889,7.262a.847.847,0,0,0-.32.728c.276,3.24.287,4.6.743,8.588a.683.683,0,0,0,.5.6l4.209,1.059a.522.522,0,1,0,.266-1.01l-3.64-1.214c-.1-1.849-.3-6.99-.345-7.709a14.3,14.3,0,0,0,4.049-7.36A8.933,8.933,0,0,0,65.4,65.447C68.557,63.482,69.459,59.1,66.034,57.04ZM36.752,59.1c-3.142,2.515-2.133,6.747,1.47,7.682a8.4,8.4,0,0,0,2.927.165c.338,4.412-.779,9.263-3.846,12.456-3.71,3.908-11.041,5.236-15.709,2.359,3.131-.889,5.037-5.554,5.612-8.777.8-5.04.387-8.592.577-13.418a49.7,49.7,0,0,1,1.253-8.792,11.666,11.666,0,0,1,3.418-5.932,4.811,4.811,0,0,1,3.661-1.267C33.017,48.215,34.2,54.1,36.752,59.1Z" fill="#191919" fill-rule="evenodd"></path><path d="M37.76,85.978c-14.483,3.743-25.612,15.79-30.594,29.681a.515.515,0,1,1-.985-.3C10.461,99.474,23.739,87.5,37.9,84.294a.8.8,0,0,1,.835.315c2.243,3.292,5.748,6.667,9.617,7.539a.526.526,0,0,1-.209,1.03C43.981,92.438,40.33,89.308,37.76,85.978Z" fill="#191919" fill-rule="evenodd"></path><path d="M68.075,84.238a17.848,17.848,0,0,1-14.059,9.428.516.516,0,0,1-.121-1.024c4.232-.736,10.55-4.53,12.874-9.734a.873.873,0,0,1,.933-.51c6.5,1.023,14.313,4.511,21.719,11.278a.523.523,0,1,1-.684.791C83.353,90.134,75.143,85.489,68.075,84.238Z" fill="#191919" fill-rule="evenodd"></path><path d="M147.34,116.8a32.352,32.352,0,0,0,.305,8.132.524.524,0,0,0,1.044-.1,56.831,56.831,0,0,0-.32-8.059A.515.515,0,1,0,147.34,116.8Z" fill="#191919" fill-rule="evenodd"></path><path d="M145.669,129.374a5.028,5.028,0,0,0,5.612.519c.765-.427,2.334-1.748,1.7-2.34-.478-.456-.59.18-2.379.845a3.973,3.973,0,0,1-3.864-.287c-1.2-.8-1.239-.983-1.607-.762C144.578,127.685,145.245,128.931,145.669,129.374Z" fill="#191919" fill-rule="evenodd"></path><path d="M49.28,67.935c1.315,1.042,3.861,1.01,5.7-.35.683-.512,2.109-2.063,1.4-2.553-.526-.384-.58.25-2.3,1.17-3.6,2-4.77-.911-5.631-.219C47.957,66.4,48.771,67.528,49.28,67.935Z" fill="#191919" fill-rule="evenodd"></path><path d="M140.843,61.364a5.109,5.109,0,0,0,8.214.077.524.524,0,1,0-.782-.7c-2.174,2.085-4.74,1.328-6.7-.106C141,60.221,140.428,60.818,140.843,61.364Z" fill="#191919" fill-rule="evenodd"></path><path d="M143.743,50.1c-.194,1.25-.245,7.732.956,7.671.573-.019.56-.612.67-2.073.067-.936.034-1.033.034-5.078,0-.659,0-2.244-.646-2.321C144.144,48.217,143.814,49.687,143.743,50.1Z" fill="#191919" fill-rule="evenodd"></path><path d="M170.01,51.58c2.273-1.218,2.991-3.84,2.942-6.442-.1-4.712-2.273-8.566-6.719-11.335-.128-6.488-5.712-11.841-12.229-10.977a9.161,9.161,0,0,0-13.549,1.884,7.585,7.585,0,0,0-4.627.641c-3.441,1.809-5.664,7.712-3.743,11.282.986,1.311.452-.509-.44,3.465a22.1,22.1,0,0,0-.636,7.224c-4.351-.525-8.175,4.525-4.2,8.064a5.56,5.56,0,0,0,3.66,1.194c.662,6,2.94,12.062,8.6,14.3.106,1.517.209,2.921.451,4.932a47.534,47.534,0,0,0-10.393,5.092.522.522,0,1,0,.563.879,56.5,56.5,0,0,1,10.991-4.675.806.806,0,0,0,.529-.854c-.207-2.031-.381-4.475-.457-6.03a.873.873,0,0,0-.577-.772c-5.513-1.9-7.535-8.046-8.049-13.826a.875.875,0,0,0-.9-.8,7.815,7.815,0,0,1-1.845-.092c-2.1-.407-3.361-2.536-2.049-4.456a4.287,4.287,0,0,1,3.884-1.856,3.683,3.683,0,0,1,1.833-.379c.476-.7.961-1.373,1.418-2.082.742-1.162,4.255-7.311,4.568-8,1.8,3.373,5.854,5.672,9.614,4.56.592,3.366,2.878,6.114,6.272,6.379a8.492,8.492,0,0,0,2.822,6.324c-.263.867-.735,2.052-.968,2.776-1.462,4.628-3.868,9.574-8.369,11.447a.879.879,0,0,0-.544.854l.389,6.2a.862.862,0,0,0,.781.806c3.484.252,8.834,2.022,12.088,3.248a.522.522,0,0,0,.384-.971c-3.919-1.6-7-3.264-11.579-3.9l-.276-4.884a14.533,14.533,0,0,0,6.262-6.306,26.1,26.1,0,0,0,2.5-7.043c-.391,3.91,1.209,7.632,5.037,8.745l.19,1.155c-1.742,2.227-1.743,5.425-1.238,8.195a.868.868,0,0,0,.873.714c2.556-.016,5-.8,7.491-1.093a.883.883,0,0,0,.777-.888c-.05-3.062-1.178-6.72-4.033-7.93a18.79,18.79,0,0,1-2.29.272c-.755.01-.856-.709-.271-.99a10.651,10.651,0,0,1,2.342-.5A8.156,8.156,0,0,0,168.9,54.483,7.781,7.781,0,0,0,170.01,51.58Zm-34.4-11.075a44.726,44.726,0,0,0-3.332,6.656c.176-1.167.136-.717.427-2.942.526-3.874.992-4.881,1.071-6.313a5.313,5.313,0,0,0,3.457-.06C136.637,38.7,136.135,39.607,135.613,40.505Zm2.77-12.93c-2.153,1.168-2.9,3.649-3.1,6.32a.516.516,0,1,1-1.029.078c-.553-2.531.558-6.3,3.714-7.365A.526.526,0,0,1,138.383,27.575Zm3.106-.206-.281,0a.517.517,0,0,1-.015-1.034l.282-.009a.514.514,0,0,1,.529.509A.526.526,0,0,1,141.489,27.369ZM167.7,46.652a.523.523,0,1,1-1-.325c1.089-3.489-1.392-6.67-4.6-8.316a.857.857,0,0,1-.452-.869c.547-4.417-2.319-7.575-6.84-7.36a.87.87,0,0,1-.806-.456c-1.25-2.443-4.06-3.327-6.767-3.078a.509.509,0,0,1-.588-.423.518.518,0,0,1,.428-.592c3.294-.8,6.354-.027,8.18,2.8a7.773,7.773,0,0,1,8.15,8.753C167.079,38.966,169.116,42.648,167.7,46.652Z" fill="#191919" fill-rule="evenodd"></path><path d="M133.278,95.235a48.58,48.58,0,0,1-5.986-.969c.024-3.8-.428-12.782-.438-12.885-.213-2.011-.288-2.39-.762-2.4-.5-.009-.552.423-.733,1.767a60.544,60.544,0,0,0,.669,13.226,30.249,30.249,0,0,1-6.6-2.317,36,36,0,0,0,3.866-3.892c.979-1.2,1.207-1.478.893-1.84-.341-.4-.766-.063-1.388.325a10.964,10.964,0,0,0-.918.65,29.64,29.64,0,0,0-2.393,2.389,8.378,8.378,0,0,0-1.268,1.688,11.579,11.579,0,0,1-4.014-3.91.867.867,0,0,0-1.335-.2,28.091,28.091,0,0,0-6.486,8.039.516.516,0,0,0,.869.558,63.671,63.671,0,0,1,6.034-6.617c2.9,3.994,8.366,6.055,13.191,6.845a55.845,55.845,0,0,0,6.733.592A.525.525,0,0,0,133.278,95.235Z" fill="#191919" fill-rule="evenodd"></path><path d="M187.347,96.209a40.529,40.529,0,0,0-12.1-14.156.882.882,0,0,0-1.083.034q-1.572,1.311-3.194,2.557a19.306,19.306,0,0,0-2.989-2.076c-.261-.124-1.4-.513-1.684-.053-.255.433.638,1.335.743,1.427.245.213,2.333,1.612,2.543,1.745-1.61,1.187-3.025,2.156-4.579,3.158.053-1.441.034-2.625-.129-7-.037-.813-.063-4.268-.971-4.252-.892.03-.79,3.343-.776,4.17a51.826,51.826,0,0,0,.57,7.921c-1.433.926-2.807,1.831-4.316,2.689a.514.514,0,0,0,.456.922c4.078-1.7,7.962-3.719,14.919-9.423a50.81,50.81,0,0,1,11.675,12.845.526.526,0,0,0,.713.2A.52.52,0,0,0,187.347,96.209Z" fill="#191919" fill-rule="evenodd"></path><path d="M124.236,146.433c-11.765,4.9-20.844,19.428-25.041,31.22a.513.513,0,1,1-.975-.32c3.993-13.519,13.84-28.644,26.977-33.143a.881.881,0,0,1,1.141,1.034,185.221,185.221,0,0,1-6.156,20.4c.947-.277,7.326-1.981,9.573-2.593a.784.784,0,0,1,.85,1.209c-2.126,2.937-4.244,6.249-6.559,9.166,2.05,1.72,4.049,3.357,5.874,5.053a.518.518,0,0,1,.044.738.528.528,0,0,1-.743.039c-1.908-1.664-4.325-3.52-6.486-5.248a.651.651,0,0,1-.1-.9c1.854-2.38,3.879-5.568,5.467-7.952-1.918.539-7.957,2.263-9.059,2.612a.86.86,0,0,1-.874-.228c-.693-.755.1-.642,3.461-11.69C122.59,152.686,123.469,149.54,124.236,146.433Z" fill="#191919" fill-rule="evenodd"></path><path d="M194.98,177.761a40.367,40.367,0,0,0-6.121-13.18,73.387,73.387,0,0,0-13.656-14.37,25.76,25.76,0,0,0-8.37-4.568.515.515,0,0,0-.369.961,35.709,35.709,0,0,1,6.958,4.389,127.177,127.177,0,0,0,.1,14.238,63.6,63.6,0,0,0-9.962-3.481.884.884,0,0,0-.936,1.35c1.665,2.475,3.484,5.381,4.815,7.6-1.9,2.39-3.278,3.556-6.209,7.6a.523.523,0,0,0,.1.724.517.517,0,0,0,.719-.1c2.255-2.633,4.559-4.419,7.107-7.642a.851.851,0,0,0,.058-.956c-1.21-2.068-2.551-4.265-3.85-6.267.748.223,1.5.461,2.243.723,6.469,2.241,6.626,3.036,7.384,2.486.816-.576-.071-.066-.475-15.411,8.113,6.614,16.285,16.319,19.459,26.193a.525.525,0,0,0,1.009-.291Z" fill="#191919" fill-rule="evenodd"></path><path d="M127.3,107.69c-9.331-6.052-12.408-7.251-19.455-9.428a1.152,1.152,0,0,0-1.032.2c-2.631,2.481-5.722,5.266-8.306,8.039-2.644-2.429-5.67-4.826-8.194-7.365a.874.874,0,0,0-.889-.218c-9.867,3.182-14.576,7.347-19.957,15.253a.514.514,0,1,0,.83.607,41.157,41.157,0,0,1,12.2-11.071c1.491,3.965,2.757,7.117,4.5,11,.8,1.78,1.9,3.618,3.874,3.65,1.847.023,3.164-1.361,4.092-2.942,1.306-2.275,2.136-3.905,2.813-5.348-.007,1.453.126,3.877.183,5.386a81.7,81.7,0,0,0,.787,10.345.53.53,0,0,0,.558.5.522.522,0,0,0,.49-.558c.046-3.226.16-2.585,0-8.161-.176-5.6-.291-7.31-.679-9.159.625-.522-.52-.917,3.465,6,2,3.421,4.665,3.58,6.331,1.928,2.322-2.308,4.584-11.006,5.308-14.237a83.669,83.669,0,0,1,12.53,6.475.536.536,0,0,0,.724-.165A.529.529,0,0,0,127.3,107.69Zm-33.616,6.947c-.629.976-1.614,2.122-2.767,2.073a1.823,1.823,0,0,1-1.326-.835c-1.18-1.5-4.836-11.139-5.5-12.9,1.688-.681,3.6-1.275,5.626-1.908a63.592,63.592,0,0,0,7.809,6.918C96.394,110.2,95.047,112.5,93.679,114.637Zm17.4-7.437c-.522,1.73-2.1,6.649-3.374,7.947-1.3,1.338-2.837.068-3.84-1.51-1.482-2.3-2.827-4.662-3.693-6.352q.913-.961,1.865-1.906a63.568,63.568,0,0,0,5.784-5.316c1.708.573,2.994,1.09,4.651,1.806C112.078,103.6,111.616,105.413,111.078,107.2Z" fill="#191919" fill-rule="evenodd"></path><path d="M165.784,107.777c-.588-7.442-2.255-13.959-9.69-13.632-1.664-1.8-3.838-3.786-6.184-4.539-3.889-1.242-7.593-.1-10.773,2.263-4.427,3.272-7.845,8.908-9.364,13.3-2.6,7.5-2.167,15.981-2.175,23.845-.017,13.243-2.123,27.441,7.457,37.653a.876.876,0,0,0,1.446-.932,47.147,47.147,0,0,1-1.956-5.709q.75,1.107,1.6,2.165a.873.873,0,0,0,.439.292,36.693,36.693,0,0,0,1.6,6.43,73.28,73.28,0,0,0,3.209,9.073.523.523,0,0,0,1-.306c-.337-1.524-.594-2.791-1.043-4.384-.175-.616-2.112-6.99-2.539-8.262-.3-.893-.681-1.765-1.212-3,.374-.763-.922-9.33-1.112-16.751a18.962,18.962,0,0,1,7.568-2.417.849.849,0,0,0,.755-.84v-2.165a17.438,17.438,0,0,0,7.352-.119c0,.094.015,1.492.034,2.293a.522.522,0,0,0,.534.5c2.491-.029,6.742,1.082,9.157,1.847-.715,1.637-2.9,6.706-3.493,8.138-.65,1.564-9.039,23.506-9.636,24.749a.509.509,0,0,0,.194.7.516.516,0,0,0,.7-.194,34.3,34.3,0,0,0,2.714-4.971c.95-2.172,10.181-27.055,10.54-28.086,1.954.658,2.021.82,2.365.605a.593.593,0,0,0,.3-.437C167.715,132.649,166.713,120.156,165.784,107.777Zm-34.5,10.958a.527.527,0,0,1-1.049-.093,7.65,7.65,0,0,1,.554-4.044c.351-.649.98-.461,1,.234A15,15,0,0,1,131.287,118.735Zm4.264-16.114a54.836,54.836,0,0,0-3.039,7.627.524.524,0,0,1-1.019-.248A28.211,28.211,0,0,1,134,101.844a18.366,18.366,0,0,1,6.729-7.777,11.568,11.568,0,0,1,3.437-1.267.516.516,0,0,1,.321.981,19.345,19.345,0,0,0-2.87,1.7A18.277,18.277,0,0,0,135.551,102.621Zm21.407,28.7a15.12,15.12,0,0,1-4.48,3.583.55.55,0,0,0-.3.49c.005,1.171,0,2-.013,2.758a29.548,29.548,0,0,1-5.451.257c-1.613-.066-1.2-.038-1.913-.1V136.74a6.137,6.137,0,0,0,3.814.27.524.524,0,1,0-.153-1.036,8.492,8.492,0,0,1-4.429-1.2c-2.563-2.239-6.251-6.483-5.638-9.812a32.537,32.537,0,0,1,2-6.538c1.272,1.524,3.444,1.738,4.154.664.864-1.3-.779-3.434-2.755-3.693a95.236,95.236,0,0,1,7.5-11.9c8.248,17,8.325,10,4.6,12.5-1.263.839-1.816,2.228-1.238,3.1,1.115,1.673,4.773,0,4.809-2.218a28.652,28.652,0,0,0,2.649,2.635C159.954,124.061,160.283,127.381,156.958,131.317Z" fill="#191919" fill-rule="evenodd"></path></g></svg>