<svg xmlns="http://www.w3.org/2000/svg" version="1.1" xmlns:xlink="http://www.w3.org/1999/xlink" xmlns:svgjs="http://svgjs.com/svgjs" viewBox="0 0 140 140" width="140" height="140"><g transform="matrix(0.7,0,0,0.7,0,0)"><path d="M46.877,111a1.553,1.553,0,1,0,1.553-1.553A1.554,1.554,0,0,0,46.877,111Z" fill="#3b3b3c"></path><path d="M52.5,111a1.553,1.553,0,1,0,1.553-1.553A1.554,1.554,0,0,0,52.5,111Z" fill="#3b3b3c"></path><path d="M58.176,111a1.553,1.553,0,1,0,1.553-1.553A1.555,1.555,0,0,0,58.176,111Z" fill="#3b3b3c"></path><path d="M63.8,111a1.553,1.553,0,1,0,1.553-1.553A1.555,1.555,0,0,0,63.8,111Z" fill="#3b3b3c"></path><path d="M69.476,111a1.553,1.553,0,1,0,1.553-1.553A1.554,1.554,0,0,0,69.476,111Z" fill="#3b3b3c"></path><path d="M75.1,111a1.553,1.553,0,1,0,1.553-1.553A1.554,1.554,0,0,0,75.1,111Z" fill="#3b3b3c"></path><path d="M80.775,111a1.553,1.553,0,1,0,1.553-1.553A1.554,1.554,0,0,0,80.775,111Z" fill="#3b3b3c"></path><path d="M86.4,111a1.553,1.553,0,1,0,1.553-1.553A1.554,1.554,0,0,0,86.4,111Z" fill="#3b3b3c"></path><path d="M125.758,105.265c-10.2-1.847-22.6,13.681-25.812,17.618a.591.591,0,0,0,.482.964c.857,0,1.659.02,2.464.054,3.371.139,6.747,0,10.175,0,1.017,0,2.822-.357,3.641.321,1,.826,1.416,2.347,1.874,3.534a.582.582,0,0,0,1.125-.107c.9-4.928,4.423-11.523,5.569-13.977,1.156-2.473,1.018-6.479.911-7.818A.5.5,0,0,0,125.758,105.265Z" fill="#7eacdb"></path><path d="M163.619,116.778a.476.476,0,0,0-.8-.053l-4.338,5.516s-6.158-17.726-14.138-11.835c0,0-6.319,2.3-6.1,8.086s-5.195,32.452-5.195,32.452H158.21s5.409-.482,8.89-7.015,7.925-18.69,7.925-18.69S165.557,120.682,163.619,116.778Zm-5.837,7.23c-.2.6-1.137,1.616-2.624,4.07-1.718,2.834-1.924,3.992-2.3,4.5-.218.364-.5.935-.91,1.071-2.11,0,4.251-11.316,5.676-10.6C157.978,123.163,157.892,123.678,157.782,124.008Z" fill="#7eacdb"></path><path d="M124.9,115.707c0,.2.167-.538-.856,1.714l13.387,1.714c.054-.643.161-1.232.215-1.768Z" fill="#7eacdb"></path><path d="M121.046,125.775l15.1,1.928.214-1.767-14.887-1.875C121.2,125.022,121.342,124.59,121.046,125.775Z" fill="#7eacdb"></path><path d="M119.493,133.326c-.151,0,.068.25.375,1.017l15.047,1.714c.054-.536.161-1.125.268-1.767l-15.369-1.768A1.83,1.83,0,0,1,119.493,133.326Z" fill="#7eacdb"></path><path d="M124.366,144.411l9.211,1.071a.69.69,0,0,1,.053-.322c.054-.374.107-.91.214-1.445l-10.281-1.179C123.83,143.126,124.1,143.768,124.366,144.411Z" fill="#7eacdb"></path><path d="M153.766,42.985a14.954,14.954,0,0,0-2.732-7.283,15.817,15.817,0,0,0-11.085-6.48c-.968-.069,8.411-.054-118.777-.054a16.165,16.165,0,0,0-4.5.536A15.607,15.607,0,0,0,5.214,42.288,14.817,14.817,0,0,0,5,44.484c0,.375.366,86.432.428,87.771.095,2.035.215,3.213.375,1.981.608-4.683.589-64.183.589-85.456,4.041.577,145.963-.275,146.41-.387,0,.268.11,13.509.131,14.849.045,2.862.661,2.9.8-.015C154,57.638,153.969,44.614,153.766,42.985ZM6.339,47.965V45.02a14.347,14.347,0,0,1,8.836-13.388,15.153,15.153,0,0,1,3.909-.964c1.635,0-16.334-.054,120.062-.054A14.3,14.3,0,0,1,152.8,44.056v3.819C145.91,46.563,47.284,47.965,6.339,47.965Z" fill="#3b3b3c"></path><path d="M17.371 40.146 A3.427 3.427 0 1 0 24.225 40.146 A3.427 3.427 0 1 0 17.371 40.146 Z" fill="#7eacdb"></path><path d="M22.993,36.612a4.134,4.134,0,0,0-5.3,6.212c1.285,1.469,3.458,1.3,3.052.7-.13-.259-.915-.326-1.714-1.124a2.874,2.874,0,0,1,1.286-4.82A2.756,2.756,0,0,1,23.154,38.7a3.025,3.025,0,0,1-1.446,4.392l-.643.321c-.16.107-.267.214-.16.375.053.107.214.161.375.214a3.289,3.289,0,0,0,3.373-1.981,4.876,4.876,0,0,0,.268-.911A4.637,4.637,0,0,0,22.993,36.612Z" fill="#3b3b3c"></path><path d="M33.811,36.612a4.135,4.135,0,0,0-5.3,6.212c1.286,1.469,3.459,1.3,3.053.7-.13-.259-.915-.326-1.714-1.124a2.874,2.874,0,0,1,1.285-4.82A2.757,2.757,0,0,1,33.972,38.7a3.026,3.026,0,0,1-1.446,4.392l-.643.321c-.161.107-.268.214-.161.375.054.107.215.161.375.214a3.291,3.291,0,0,0,3.374-1.981,4.989,4.989,0,0,0,.268-.911A4.637,4.637,0,0,0,33.811,36.612Z" fill="#3b3b3c"></path><path d="M44.628,36.612a4.134,4.134,0,0,0-5.3,6.212c1.286,1.469,3.459,1.3,3.052.7-.129-.259-.914-.326-1.713-1.124a2.874,2.874,0,0,1,1.285-4.82A2.756,2.756,0,0,1,44.789,38.7a3.025,3.025,0,0,1-1.446,4.392l-.642.321c-.161.107-.268.214-.161.375.054.107.214.161.375.214a3.291,3.291,0,0,0,3.374-1.981,4.958,4.958,0,0,0,.267-.911A4.637,4.637,0,0,0,44.628,36.612Z" fill="#3b3b3c"></path><path d="M113.656,102.159H45.324a2.972,2.972,0,0,1-2.945-2.946V95.84a2.972,2.972,0,0,1,2.945-2.946h68.332A2.972,2.972,0,0,1,116.6,95.84v3.373A2.972,2.972,0,0,1,113.656,102.159Z" fill="#7eacdb"></path><path d="M115.476,102.212a1.475,1.475,0,0,0,1.339-1.285c0-.1.3-6.736.161-7.122a2.062,2.062,0,0,0-1.285-1.393c-.541-.18-71.742-.248-72.241-.214a2.129,2.129,0,0,0-1.5,1.178c-.021.064-.214.629-.214.7,0,7.237-.025,6.75.054,6.908a2.088,2.088,0,0,0,2.088,1.767c64.244-.172,73.541-.266,71.009-.8-2.5-.532-25.577-.589-29.774-.589-44.258,0-41.491.118-41.824-.215-.3-.3-.214.048-.214-6.961a.811.811,0,0,1,.535-.536c.084-.041,69.347-.107,69.51-.107,1.724,0,.76-.054,2.2-.054a1.087,1.087,0,0,1,.428.215.964.964,0,0,1,.268.375.323.323,0,0,1,.053.214c0,1.854.108,1.322.108,4.6,0,1.593.333,2.455-.482,3a3.128,3.128,0,0,1-.429.214c-.107.054-.161.054-.161.107C115.209,102.159,115.316,102.212,115.476,102.212Z" fill="#3b3b3c"></path><path d="M79.49,52.677a18.1,18.1,0,1,0,18.1,18.1A18.078,18.078,0,0,0,79.49,52.677Zm7.818,19.814v2.731a5.173,5.173,0,0,1-.856,2.357,4.51,4.51,0,0,1-2.678,1.82c-.107,0-.214.054-.321.054a15.883,15.883,0,0,1,.053,2.41c.1,0-.013-.015.643.16a21.982,21.982,0,0,1,2.088.857c.51.255,1.154.9,1.018,1.446-.168.335-.878.194-1.018.054-.378-.126-.839-.441-1.446-.643-.957.958-4.2,1.714-5.73,1.714-1.59,0-4.008-.5-4.926-1.875-.266,0-1.962,1.12-2.517.75-.626-.313.241-1.184.857-1.553A13.093,13.093,0,0,1,75.152,81.7a7.893,7.893,0,0,1,.107-2.356A4.544,4.544,0,0,1,72.475,77.2a4.416,4.416,0,0,1-.589-1.874c-.049-.386,0,.084,0-2.785-.108,0-.215-.054-.322-.054a1.568,1.568,0,0,1-.642-.428,2.794,2.794,0,0,1-.7-1.125,3.791,3.791,0,0,1,.108-3.052,1.557,1.557,0,0,1,1.285-.91c-1.607-1.553-4.031-4.943.16-8.783,2.936-2.689,6.427-2.2,9.1-1.071,0,0,6.376,2.138,7.765,3.213.966.747-.375,4.284-1.285,6.587.884,0,1.821.856,1.821,2.41C89.557,70.454,88.579,72.65,87.308,72.491Z" fill="#7eacdb"></path><path d="M82.007,63.762c-.459.46.327.962.642.857a2.322,2.322,0,0,1,.8.054c.576.165,1.054.642,1.285.642.386,0,.694-.3.535-.856S82.859,62.91,82.007,63.762Z" fill="#3b3b3c"></path><path d="M78.419,73.562c.168.042.126.107,1.124.107a1.257,1.257,0,0,0,1.071-.8c0-.615-.729-.589-1.338-.589a38.767,38.767,0,0,1,1.231-3.748c0-.606.019-.869-.428-1.018-.451-.113-.926.609-1.125,1.071a22.479,22.479,0,0,0-1.178,3.8C77.776,72.8,77.948,73.446,78.419,73.562Z" fill="#3b3b3c"></path><path d="M82.864,66.547c-.375,0-.7.429-.75.964a.951.951,0,0,0,.642,1.071c.375,0,.7-.428.75-.964S83.238,66.547,82.864,66.547Z" fill="#3b3b3c"></path><path d="M76.705,66.547c-.826-.118-1.105,1.9-.16,2.035C77.369,68.7,77.646,66.681,76.705,66.547Z" fill="#3b3b3c"></path><path d="M81.739,74.044a5.11,5.11,0,0,1-1.553,1.178c-1.779.668-1.4-.606-2.356-.053-.439.254.037,1.121.589,1.392,1.646.809,3.655-.567,4.712-2.035a1.487,1.487,0,0,0,0-.7A.812.812,0,0,0,81.739,74.044Z" fill="#3b3b3c"></path><path d="M87.9,66.868a.657.657,0,0,0-.321-.053c.964-2.3,2.239-5.876,1.285-6.587-1.408-1.05-7.765-3.213-7.765-3.213-2.731-1.125-6.2-1.594-9.1,1.071-4.161,3.82-1.768,7.229-.161,8.782a1.082,1.082,0,0,0-.589.161,2.587,2.587,0,0,0-.7.75,3.842,3.842,0,0,0,.589,4.177,1.932,1.932,0,0,0,.642.428.679.679,0,0,0,.322.054v2.784a4.926,4.926,0,0,0,.589,1.875,4.542,4.542,0,0,0,2.785,2.142,7.8,7.8,0,0,0-.108,2.356,8.953,8.953,0,0,0-3.32,1.553c-.178.178-.156.151-.375.589,0,.054-.053.107-.053.161a.488.488,0,0,0,.642.375,17.479,17.479,0,0,0,2.089-.8c1.216,1.824,4.306,1.836,4.927,1.875,1.515.094,4.764-.748,5.73-1.714a7.913,7.913,0,0,0,2.195.8c.375-.187.4-.423.214-.7a3.384,3.384,0,0,0-2.034-1.446,10.15,10.15,0,0,0-1.661-.535,19.107,19.107,0,0,0-.053-2.41c.107,0,.214-.054.321-.054a4.477,4.477,0,0,0,3.374-3.32c.218-.69.161-.792.161-3.588,1.294.162,2.088-1.92,2.088-3.213A2.107,2.107,0,0,0,87.9,66.868Zm-15.851,4.07a2.44,2.44,0,0,1-.268-2.624c.128-.127.131-.107.268-.107C72.168,68.207,72.234,67.553,72.046,70.938Zm3.535,12.21s.542-.137.991-.257a.322.322,0,0,0,.24-.312,23.756,23.756,0,0,0-.053-3.072h5.569c-.132.529-.11.437-.107,2.973,0,.622.7.564,1.017.722C82.435,83,80.024,85.37,75.581,83.148Zm7.5-5.034c-7.175,0-6.8.028-6.962-.053a3.012,3.012,0,0,1-2.035-1.232c-.8-1.206-.642-1.312-.642-6.373,0-.953-.093-1.86-.268-3.962-.045-.268-.077-1.095-.268-1.286a3.482,3.482,0,0,0,1.071,0c0,.108-.059.424.107.589a.869.869,0,0,0,1.285-.107,3.475,3.475,0,0,1,1.018-.749c7.815-1.563,8.8-2.987,9.478-2.3.054.053.108.161.161.214,0,.054.054.107.054.161V74.9C86.077,75.311,85.275,78.114,83.078,78.114ZM87.362,71.1V67.993c.283.283.769.4.643,1.285A3.083,3.083,0,0,1,87.362,71.1Z" fill="#3b3b3c"></path><path d="M54.7,128.292c-.689-1.5-3-1.928-5.409-1.125.725-4.106-2.749-5.894-5.677-2.356-1.363-3.1-4.612-3.009-5.783.857-1.392-2.2-3.634-3.255-5.195-2.356-1.226.7-1.606,2.516-1.017,4.444-2.3-.214-4.283.7-4.659,2.249-.427,1.768,1.44,3.775,4.123,4.338a15.024,15.024,0,0,0,1.5.214V136H47.466v-1.66C51.669,134.743,55.845,130.8,54.7,128.292Z" fill="#7eacdb"></path><path d="M51.535,145.564c.786-4.233.114-10.195-.106-11.81a6.9,6.9,0,0,0,3.642-3.749c.267-.16.321-.642.214-1.071-.218-.652-.535-.8-.429-.481.407,1.627-1.6,4.434-5.141,5.14H44.521c2.131-3.044,5.458-2.579,5.141-3.213-.4-.6-3.428-.683-5.944,2.464.782-3.389,2.409-5.432,2.409-6,.284-.853-1.4.291-2.356,2.624A18.309,18.309,0,0,0,42.54,133.7H40.772c0-.483-.007-.965,0-1.5.047-3.667.258-4.42.107-4.873,0-1.274-1.231-2.235-1.231,6.373h-.8c-.033-.1-.735-4.593-3.052-6.908-.107-.054-.474-.505-.589-.161a1.151,1.151,0,0,0,.161.7,30.223,30.223,0,0,1,2.2,5.569c-2.683-3.688-6.487-2.952-5.891-2.356.332.5,2.881.237,5.088,3.106-6.255,0-5.829.111-6.8-.375-1.3-.651-2.549-1.895-2.142-3.32.92-1.84,2.926-1.715,4.766-1.607a6.761,6.761,0,0,1-.321-3.266c.518-1.813,2.078-1.9,3.641-.857a10.071,10.071,0,0,1,2.3,2.677c1.489-5.213,4.112-4.605,5.462-1.231,1.9-2.532,4.6-3.585,5.3-.964a5.79,5.79,0,0,1,.053,2.892c.728-.182,2.682-1.039,4.391-.429a3.607,3.607,0,0,1,1.393.911c.377.189,0-1.369-2.142-1.821a8.61,8.61,0,0,0-2.678,0c.366-.731-.265-3.922-2.3-4.177a4.22,4.22,0,0,0-3.8,1.5c0-.1.018-.029-.161-.267a3.087,3.087,0,0,0-4.391-.911,5.989,5.989,0,0,0-1.5,1.874c-2.956-3.546-7.577-2.4-6.747,2.571-5.308,0-6.584,5.021-.8,7.5a34.529,34.529,0,0,0-.34,11.276c-4.491.013-23.525-.235-21.616.719,1.563.782,20.093.559,21.817.551a4.328,4.328,0,0,0,3.62,3.252c4.554.521,12.691,1.123,15.584-.429a4.6,4.6,0,0,0,1.911-2.933C64.32,146.7,76.8,146.6,77.4,146.5,82.2,145.3,56.384,145.552,51.535,145.564Z" fill="#3b3b3c"></path><path d="M94.109,140.555c0,6.166,6.844,6.059,7.872,1.232.309-1.449.054-1.767-1.392-1.607-.674,0-1.49.2-1.981-.535a1.951,1.951,0,0,1,0-2.089c.58-1.236.268-1.633-1.071-1.606C96.016,135.98,94.109,137.619,94.109,140.555Z" fill="#3b3b3c"></path><path d="M98.715,135.468c1.928,0,3.266-.911,3.641-2.3a1.2,1.2,0,0,0-.321-.964,3.353,3.353,0,0,0-4.713,2.249c-.109.535.054.857.59.964C98.233,135.414,98.554,135.468,98.715,135.468Z" fill="#3b3b3c"></path><path d="M141.4,106.175c.165-.781.643-2.525.643-2.892,0-.452.045-1.017-.429-1.017-.49,0-.9.989-1.017,1.445l-.884,3.585a.609.609,0,0,0,.39.722c2.589.909,3.151,1.113,3.493.942a.332.332,0,0,0,.321-.375c0-.478-.924-1.008-1.392-1.124-.063,0-1.367-.482-1.446-.482A3.16,3.16,0,0,0,141.4,106.175Z" fill="#3b3b3c"></path><path d="M150.767,97.018l1.553-.268c1.66-.589.642-2.892-.054-4.123,2.355.261,4.861-1.568,3.963-3.963-.107-.214-.214-.375-.321-.589a19.216,19.216,0,0,0,4.337-3.7c3.68-5.322-9.433-22.195-20.778-20.992-9.268.983-10.014,8.461-6.694,12.317.629.392.628-.178-.91,2.3-2.011,3.243-6.413,10.845-5.783,14.62.614,3.689,2.755,4.808,6.158,6.64-.611.815-.572.943-2.142,5.944-.463,0-1.756-.008-2.249.054-.324,0-1.3.326-1.018.749.163.649,2.5.623,3.764.6a.792.792,0,0,0,.742-.561c1.193-3.905,1.867-5.957,1.867-6.3,5.684,2.526,9.279,1.529,8.3,1.285-1.074-.359-3.41.135-9.05-3-3.41-1.893-5.9-3.673-4.98-7.5,1.211-5.037,4.236-9.969,7.122-14.244l1.018-.161c-.294.3-.548.522-.215.857.2.293.836.283,1.179.214,2.388,0,1.165-.384,3.748.91.1.1,1.515.266.7-.964-1.438-2.158-8.989-.444,9.1-3.052,4.095,2.34,3.347,9.6,1.767,13.549,1.193.2,2.35.568,2.731,1.713S153.333,91.4,152.8,91.4a2.6,2.6,0,0,1-1.392-.054c-.419-.209-1.087-.34-1.232-.053-.053.107-.16.161-.214.214a56.356,56.356,0,0,1-5.034,6.64c-.8.892-1.9,2.005-1.231,1.768a9.564,9.564,0,0,0,2.088-1.5c.268.107.7.321,1.286.536C150.231,99.856,150.767,97.018,150.767,97.018Z" fill="#3b3b3c"></path><path d="M133.2,87.218a1.624,1.624,0,0,0-.268,1.017c0,.835,2.492,2.315,4.124,1.5a.308.308,0,0,0,.107-.375c-.211-.421-2.361-1.022-2.785-1.446,0-.683,6.8-6.146,6.8-6.854,0-.974-1.847.259-2.57.91-.161.107-1.661,1.392-3.106,2.784A12.529,12.529,0,0,0,133.2,87.218Z" fill="#3b3b3c"></path><path d="M144.93,84.326c-.429.7-.375,1.5.107,1.767,1.165.648,2.621-1.947,1.5-2.57C146.054,83.255,145.3,83.63,144.93,84.326Z" fill="#3b3b3c"></path><path d="M135.772,82.023c1.166.648,2.622-1.947,1.5-2.57C136.106,78.806,134.65,81.4,135.772,82.023Z" fill="#3b3b3c"></path><path d="M147.982,81.113c1.047.838,1.4,2.835,2.356,2.356.315-.21.322-.483.322-.857,0-1.98-3.753-4.28-4.338-3.694-.474,0-.564.616-.268.91C146.288,80.412,146.964,80.188,147.982,81.113Z" fill="#3b3b3c"></path><path d="M133.255,93.858c1.608,1.594,4.467,1.416,6.534.589a2.8,2.8,0,0,0,1.392-1.017c.124-.124.153-.459,0-.535-.512-.343-1.75.209-2.945.535s-3.2.407-3.963-.482c-.62-.531-.683-1.553-1.339-1.553C132.447,91.557,132.3,92.9,133.255,93.858Z" fill="#3b3b3c"></path><path d="M146.75,109.281c-.8-.266-4.1,1.036-6.372,2.624-2,0-9.25,3.606-13.335-2.517-.053-.107-.16-.16-.214-.267,0-.611-.076-2.949-.643-2.571-.465.349-.8,5.351-1.177,6.105,0,.548-3.058,4.542-4.927,11.085-.627,2.2-1.527,6.558-1.071,8.836-.037-.036-2.678-5.723-2.678-5.837a3.051,3.051,0,0,0-1.285-1.232c-.835-.418-.4-.321-6.855-.321a20.65,20.65,0,0,0,.964-1.981c1.253-3.133,5.1-7.813,5.516-9.051.151-.151.047-.983-.75-.428-1.718,1.2-6.64,8.572-6.64,11.353H98.822c4.118-4.118,12.312-16.461,25.437-20.029,2.9-.773-2.011-1.531-7.481,1.552a1.739,1.739,0,0,0-1.034-.8c-.373-.124-72.12-.335-72.241-.214a2.23,2.23,0,0,0-1.713,1.875c0,7.236-.026,6.75.053,6.908a2.091,2.091,0,0,0,2.089,1.767c32.734-.175,51.2-.241,61.11-.334-4.458,4.6-7.291,8.871-7.291,9.33-22.019,0-20.636-.029-20.885.054a3.07,3.07,0,0,0-2.571,3.641c0,.554,9.211,23.367,9.211,20.992-.217-2.377-7.925-21.27-7.925-21.366a1.651,1.651,0,0,1,1.285-1.821c.445-.149,37.011,0,37.111,0a1.888,1.888,0,0,1,1.017.8c.115.114,7.12,15.769,10.282,21.742.054.16.161.267.214.428-28.692,0-38.746-.1-41.609.857-1.01.337-.886,1.14,1.714,1.393,3.061.3,6.158.588,9.264.588,45.44,0,45.968-.079,48.035-.375,5.812-.413,6.6-2.463-9.371-2.463,1.464-1.83,5.569-32.479,5.569-32.934,0-3.036,2.938-4.259,5.463-5.837C145.167,110.452,147.353,109.432,146.75,109.281ZM43.129,114.047c0-7.261-.5-7.015,1.392-7.015,74.844,0,70.833-.414,71.337.116a51.466,51.466,0,0,0-9.951,7.776C46.781,113.781,43.129,115.955,43.129,114.047Zm94.678,2.249c0,2.294-4.507,29.145-4.507,32.8,0,.362-.671.426-6.9.46-2.257-6.206-6.27-14.647-6.908-16.066.854,0,.318-6.555,3.855-14.512,1.891-4.253,3.428-5.7,3.428-7.979,2.981,3.721,7.378,3.761,11.942,2.517A4.273,4.273,0,0,0,137.807,116.3Z" fill="#3b3b3c"></path><path d="M183.647,103.176a12.753,12.753,0,0,1,2.249-1.714c1.855-1.133,3.064-1.415,3.213-1.713.96-.481.436-2.221-4.016.536C180.276,103.267,181.072,105.75,183.647,103.176Z" fill="#3b3b3c"></path><path d="M188.467,103.444c-2.578,1.29-2.727,1.763-3.267,2.3-.261.523-.3.711,0,.91.393.131.515-.018,1.446-.482.327-.164.141-.166.536-.428,3.43-2.287,7.365-2.566,6.8-3.695C193.388,101.16,189.424,102.965,188.467,103.444Z" fill="#3b3b3c"></path><path d="M194.572,106.175c-.837-.21-1.191-.012-3.267.643-4.118,1.3-3.875,2.677-2.838,2.677a3.314,3.314,0,0,0,1.017-.321c3.47-1.735,5.071-1.52,5.516-2.41C194.863,106.627,195.064,106.421,194.572,106.175Z" fill="#3b3b3c"></path><path d="M165.332,118.492c.647.162,1.538-1,1.982-1.446,1.646-1.646,3.486-3.14,3.642-3.374.106-.107.214-.428.321-.535,0-.054.053-.107.053-.161a.428.428,0,0,0-.589-.375,2.749,2.749,0,0,0-1.124.536,39.709,39.709,0,0,0-3.642,3.32c-.226.3-.91.9-.91,1.66C165.065,118.282,165.024,118.338,165.332,118.492Z" fill="#3b3b3c"></path><path d="M193.286,110.085c-7.653,0-10.485,2.034-9.532,2.034,1.425,0,1.2-.857,9.1-.857.054,0,0,.054,0,.054-2.692,1.8-2.96,1.373-5.409,2.624-2.067,1.056-4.489,3.465-6.479,4.659a7.387,7.387,0,0,1-3.535,1.339c-4.215,0-8.072,34.638-23.241,29.4-2.4-.829-3.374-3.4-3.374-2.463,0,1.574,2.291,4.124,6.8,4.124,12.695,0,16.428-26.282,19.921-29.775,3.25,0,7.271-4.321,10.122-6,1.643-.822,7.974-2.82,6.372-4.819C194.036,110.326,193.367,110.085,193.286,110.085Z" fill="#3b3b3c"></path><path d="M173.312,110.085c0-1.985-.24-2.586.16-3.588.589-1.178,1.628-2.152,2.25-4.017.3-1.2.4-2.7-.482-3.588-.9-.452-.4,1.6-.964,3.374-.625,1.949-2.57,3.109-2.3,5.516C171.83,110.757,173.312,111.224,173.312,110.085Z" fill="#3b3b3c"></path><path d="M179.149,115.225c.529.177.788-.539,1.553-1.017,1.2-.748,1.226-.423,1.446-.643a.427.427,0,0,0,.321-.535c-.364-1.093-3.695.671-3.695,1.981C178.914,115.011,178.974,115.138,179.149,115.225Z" fill="#3b3b3c"></path><path d="M152.8,113.137a23.18,23.18,0,0,1,2.249,3.373,5.462,5.462,0,0,0,.8,1.179c.361.36.39.428.536.428.3.15.617-.182.482-.589-.2-2.18-4.08-6.993-6.052-7.979a3.5,3.5,0,0,0-.964-.428c-.138-.047-.6-.1-.7,0a.416.416,0,0,0,.054.749c.428.375.8.75,1.231,1.071.054,0,.107.107.268.214A13.022,13.022,0,0,1,152.8,113.137Z" fill="#3b3b3c"></path><path d="M72.207,162.3a11.152,11.152,0,0,0,.053,1.821c0,.448.643.486.643-.322,0-2.011-.074-1.318.214-1.606l10.55-5.944a1.059,1.059,0,0,0-.375-1.982c-6.052-.64-12.053-1.2-18.1-1.874-6.522-.73-5.743-.365-11.407,1.767-2.411.908-4.819,1.821-7.283,2.731a1.074,1.074,0,0,0,.322,2.035Z" fill="#7eacdb"></path><path d="M84.417,156.888c-.108-.321-.215-.535-.375-.321a1.775,1.775,0,0,0-.214.7,1.17,1.17,0,0,0-.054.428.322.322,0,0,1-.054.215.2.2,0,0,1-.053.16,2.4,2.4,0,0,1-1.285,1.767c-1.684.722-8.46,4.38-8.569,4.445a2.519,2.519,0,0,1-1.071.375c-.157,0-25.336-3.159-25.436-3.159,0-.318-.054-.22-.054-.911-.054-.268-.054-.482-.107-.7-.107-.321-.214-.535-.375-.321a7.791,7.791,0,0,0-.375,1.874.968.968,0,0,0,.107.536,1.375,1.375,0,0,0,.911.7c1.66.321,3.316.618,5.033.8.589.063,19.172,2.463,19.654,2.517a3.882,3.882,0,0,0,1.66-.214c.053-.054.161-.054.214-.107a8.973,8.973,0,0,0,1.071-.536c1.166-.666.808-.361,3.213-1.714,3.343-1.879,2.74-1.429,4.284-2.356a3.462,3.462,0,0,1,.589-.321,3.09,3.09,0,0,0,1.232-1.5,5.412,5.412,0,0,0,.214-.856v-.429C84.523,157.8,84.48,157.141,84.417,156.888Z" fill="#7eacdb"></path><path d="M147.875,161.976c.582-.326,3.189-1.683,3.8-1.928a.053.053,0,0,0,.054-.054h.053c.114-.114.1-.048.268-.214a1.522,1.522,0,0,0-.161-2.517c-.477-.238-.428-.214-.589-.214-.111,0-16.3-2.764-18.1-3.053-1.287-.206-2.574-.353-3.8-.535-.433-.064-2.839-.441-2.839,0a.565.565,0,0,0,.215.053c.107,0,.16.054.267.108,1.382.69,23.355,4.746,23.456,4.766.737.145.7.035.7.267v.054h-.053c-.077.076-3.325,1.662-5.57,2.785a.052.052,0,0,0-.053.053c-3.115,1.532-15.629,7.765-15.691,7.765-1.068-.267-29.171-5.73-29.346-5.73-.087,0-.02-.107-.107-.107v-.161l.053-.053c.143,0,2.223-.756,2.946-1.018,6.182-2.236,25.971-9.043,23.027-8.782-2.98.263-26.3,8.534-26.4,8.568a1.37,1.37,0,0,0-.7.536,1.545,1.545,0,0,0,.589,2.356c.058.058,29.231,5.692,29.828,5.891a1.821,1.821,0,0,0,1.071-.161C143.47,164.312,144.649,163.779,147.875,161.976Z" fill="#3b3b3c"></path><path d="M125.705,165.242c-17.663-3.372-15.265-3.106-17.565-3.106a.905.905,0,0,0-.375.054c-.161.053-.321.16-.214.321.306.613,3.164,1.26,3.855,1.392,15.959,3.047,14.737,3.106,17.565,3.106a.921.921,0,0,0,.375-.053c.161-.054.321-.161.214-.321C129.26,166.033,126.458,165.386,125.705,165.242Z" fill="#3b3b3c"></path><path d="M136.683,164.171a.923.923,0,0,0,.375-.053c.16-.054.321-.161.214-.322-.307-.612-3.163-1.26-3.856-1.392-16.527-3.155-15.6-3.106-16.762-3.106a3.754,3.754,0,0,0-1.178.054c-.561.187-.066.578.482.8a16.444,16.444,0,0,0,3.16.91C135.143,164.124,133.887,164.171,136.683,164.171Z" fill="#3b3b3c"></path><path d="M144.126,161.065a.921.921,0,0,0,.375-.053c.161-.054.321-.161.214-.322-.306-.612-3.162-1.26-3.855-1.392-16.527-3.155-15.6-3.106-16.762-3.106a3.754,3.754,0,0,0-1.178.054c-.561.187-.066.578.482.8a16.434,16.434,0,0,0,3.159.91C142.586,161.018,141.33,161.065,144.126,161.065Z" fill="#3b3b3c"></path></g></svg>